# Blender 3.3.1
# www.blender.org
mtllib figur_koerper.mtl
o Cube
v 0.044149 0.444536 0.163757
v 0.186511 1.100348 0.132506
v 0.044149 0.444535 -0.147467
v 0.187782 1.099523 -0.147078
v 0.000000 0.444535 -0.147467
v 0.000000 1.100369 -0.147415
v -0.000000 0.444536 0.163757
v 0.000000 1.100369 0.142257
v 0.167491 0.881758 -0.136007
v 0.167491 0.663147 -0.140452
v 0.159835 0.881758 0.163757
v 0.159835 0.663147 0.163757
v 0.000000 0.881758 0.185158
v -0.000000 0.663147 0.185158
v 0.000000 0.881758 -0.146587
v 0.000000 0.663147 -0.151032
v 0.167491 0.488905 -0.163757
v 0.167491 0.488906 0.163757
v -0.000000 0.488905 0.163757
v 0.000000 0.488905 -0.163757
v 0.155237 0.410635 -0.111186
v 0.054199 0.411118 -0.111186
v 0.054199 0.411118 0.104196
v 0.155237 0.410636 0.104196
v 0.155237 0.239967 -0.066779
v 0.054199 0.239967 -0.066779
v 0.054199 0.239968 0.104197
v 0.155237 0.239968 0.104197
v 0.155237 0.215327 -0.066779
v 0.054199 0.215327 -0.066779
v 0.054199 0.215327 0.111187
v 0.155237 0.215327 0.111187
v 0.155237 0.187335 -0.066779
v 0.054199 0.187335 -0.066779
v 0.054199 0.187335 0.104197
v 0.155237 0.187335 0.104197
v 0.155237 0.060383 -0.068888
v 0.054199 0.060383 -0.068888
v 0.054199 0.060383 0.111186
v 0.155237 0.060383 0.111186
v 0.155237 0.001564 -0.068888
v 0.054199 0.001564 -0.068888
v 0.054199 0.001564 0.111186
v 0.155237 0.001564 0.111186
v 0.155237 0.060383 0.172944
v 0.054199 0.060383 0.172944
v 0.155237 0.001564 0.172944
v 0.054199 0.001564 0.172944
v 0.155237 0.027415 0.211398
v 0.054199 0.027415 0.211398
v 0.155237 0.001564 0.211398
v 0.054199 0.001564 0.211398
v 0.160509 0.078221 0.115799
v 0.160509 0.078222 -0.080491
v 0.048927 0.078222 -0.080491
v 0.048927 0.078221 0.115799
v 0.227224 1.080841 -0.100829
v 0.222654 1.083955 0.103725
v 0.219770 0.948348 -0.102788
v 0.215267 0.951394 0.101793
v 0.334039 0.795872 0.052719
v 0.298828 0.826774 0.148966
v 0.270712 0.764505 0.036173
v 0.236677 0.794442 0.132810
v 0.346720 0.763040 0.066427
v 0.308119 0.789150 0.164673
v 0.283393 0.731673 0.049881
v 0.244791 0.757783 0.148127
v 0.359401 0.730208 0.080135
v 0.320800 0.756318 0.178380
v 0.296073 0.698841 0.063589
v 0.257472 0.724951 0.161835
v 0.386198 0.589529 0.159931
v 0.368047 0.601806 0.206127
v 0.356421 0.574779 0.152152
v 0.338270 0.587057 0.198347
v 0.405165 0.556006 0.169324
v 0.382544 0.571307 0.226898
v 0.368054 0.537624 0.159627
v 0.345433 0.552925 0.217202
v 0.420152 0.517205 0.185524
v 0.397530 0.532506 0.243098
v 0.383040 0.498823 0.175828
v 0.360419 0.514124 0.233402
v 0.000000 1.143336 -0.066608
v 0.076747 1.143336 -0.066608
v 0.076747 1.143336 0.066608
v 0.000000 1.143336 0.066608
v 0.167491 0.606267 -0.148059
v 0.167491 0.548187 -0.155828
v 0.162334 0.606267 0.163757
v 0.164886 0.548187 0.163757
v -0.000000 0.606267 0.178172
v -0.000000 0.548187 0.171038
v 0.000000 0.606267 -0.155186
v 0.000000 0.548187 -0.159428
v 0.190791 0.608884 -0.168463
v 0.188949 0.550959 -0.178142
v 0.184626 0.605427 0.185400
v 0.187736 0.547394 0.184812
v -0.000000 0.604411 0.209130
v -0.000000 0.546331 0.201997
v 0.000000 0.609462 -0.186087
v 0.000000 0.551382 -0.190329
v -0.044149 0.444536 0.163757
v -0.186841 1.100520 0.132296
v -0.044149 0.444535 -0.147467
v -0.187497 1.099104 -0.147289
v -0.167491 0.881758 -0.136007
v -0.167491 0.663147 -0.140452
v -0.159835 0.881758 0.163757
v -0.159835 0.663147 0.163757
v -0.167491 0.488905 -0.163757
v -0.167491 0.488906 0.163757
v -0.155237 0.410635 -0.111186
v -0.054199 0.411118 -0.111186
v -0.054199 0.411118 0.104196
v -0.155237 0.410636 0.104196
v -0.155237 0.239967 -0.066779
v -0.054199 0.239967 -0.066779
v -0.054199 0.239968 0.104197
v -0.155237 0.239968 0.104197
v -0.155237 0.215327 -0.066779
v -0.054199 0.215327 -0.066779
v -0.054199 0.215327 0.111187
v -0.155237 0.215327 0.111187
v -0.155237 0.187335 -0.066779
v -0.054199 0.187335 -0.066779
v -0.054199 0.187335 0.104197
v -0.155237 0.187335 0.104197
v -0.155237 0.060383 -0.068888
v -0.054199 0.060383 -0.068888
v -0.054199 0.060383 0.111186
v -0.155237 0.060383 0.111186
v -0.155237 0.001564 -0.068888
v -0.054199 0.001564 -0.068888
v -0.054199 0.001564 0.111186
v -0.155237 0.001564 0.111186
v -0.155237 0.060383 0.172944
v -0.054199 0.060383 0.172944
v -0.155237 0.001564 0.172944
v -0.054199 0.001564 0.172944
v -0.155237 0.027415 0.211398
v -0.054199 0.027415 0.211398
v -0.155237 0.001564 0.211398
v -0.054199 0.001564 0.211398
v -0.160509 0.078221 0.115799
v -0.160509 0.078222 -0.080491
v -0.048927 0.078222 -0.080491
v -0.048927 0.078221 0.115799
v -0.226180 1.079352 -0.101540
v -0.224129 1.084791 0.102888
v -0.218174 0.947641 -0.101597
v -0.216172 0.952990 0.102851
v -0.317166 0.790775 0.068756
v -0.303309 0.841118 0.163544
v -0.248968 0.765936 0.068440
v -0.236389 0.815192 0.163299
v -0.328639 0.759060 0.085761
v -0.311486 0.804914 0.182855
v -0.260441 0.734221 0.085444
v -0.243288 0.780075 0.182538
v -0.340111 0.727345 0.102766
v -0.322959 0.773199 0.199860
v -0.271913 0.702505 0.102449
v -0.254761 0.748360 0.199543
v -0.366173 0.598361 0.200544
v -0.358108 0.619923 0.246198
v -0.334106 0.586682 0.200395
v -0.326041 0.608243 0.246049
v -0.382936 0.564468 0.212460
v -0.372884 0.591340 0.269360
v -0.342970 0.549912 0.212275
v -0.332918 0.576784 0.269174
v -0.396494 0.526986 0.232557
v -0.386442 0.553858 0.289456
v -0.356528 0.512430 0.232371
v -0.346477 0.539302 0.289271
v -0.076747 1.143336 -0.066608
v -0.076747 1.143336 0.066608
v -0.167491 0.606267 -0.148059
v -0.167491 0.548187 -0.155828
v -0.162334 0.606267 0.163757
v -0.164886 0.548187 0.163757
v -0.190791 0.608884 -0.168463
v -0.188949 0.550959 -0.178142
v -0.184626 0.605427 0.185400
v -0.187736 0.547394 0.184812
vn 0.0306 -0.0287 -0.9991
vn 0.4214 0.9069 -0.0023
vn -0.0000 -1.0000 -0.0000
vn 0.0884 0.1613 0.9829
vn 0.0034 0.8816 -0.4720
vn 0.1103 -0.0585 0.9922
vn 0.1327 -0.0000 0.9912
vn 0.9996 0.0206 0.0208
vn 0.9997 -0.0003 0.0253
vn 0.0525 0.1027 -0.9933
vn 0.0630 0.0203 -0.9978
vn -0.0000 -0.3447 -0.9387
vn 0.9880 -0.1547 -0.0000
vn -0.0000 -0.0000 1.0000
vn -0.0006 -0.2515 -0.9679
vn 0.0650 -0.6220 -0.7803
vn 0.1415 -0.7235 0.6757
vn -0.9576 -0.2880 -0.0000
vn 1.0000 -0.0000 -0.0000
vn -1.0000 -0.0000 -0.0000
vn -0.0000 -0.2423 0.9702
vn -0.0000 0.2729 0.9620
vn -0.0000 -0.0000 -1.0000
vn 0.9590 -0.2834 -0.0000
vn -0.9590 -0.2834 -0.0000
vn -0.0000 -0.2504 0.9682
vn -0.0000 -0.5452 -0.8383
vn -0.0000 1.0000 -0.0000
vn -0.0000 0.7592 0.6509
vn -0.0000 0.1247 -0.9922
vn -0.0000 0.1057 0.9944
vn -0.9988 0.0483 -0.0000
vn 0.9988 0.0483 -0.0000
vn -0.9630 -0.2521 -0.0956
vn 0.7066 -0.0095 0.7075
vn 0.6745 -0.0725 -0.7347
vn 0.7865 -0.6171 0.0227
vn -0.3734 0.2817 0.8839
vn 0.6763 -0.2125 -0.7053
vn -0.4070 0.0718 0.9106
vn 0.9343 0.3463 0.0844
vn 0.8725 0.4322 0.2280
vn 0.8975 0.3761 0.2304
vn -0.9015 -0.3661 -0.2307
vn 0.3550 -0.2401 -0.9035
vn -0.8263 -0.5326 -0.1831
vn -0.8725 -0.4322 -0.2280
vn -0.3550 0.2401 0.9035
vn -0.4041 0.3759 0.8339
vn 0.4088 -0.3901 -0.8250
vn -0.2900 0.0825 0.9535
vn 0.9063 0.3255 0.2696
vn 0.8314 0.5230 0.1877
vn -0.9035 -0.3363 -0.2656
vn 0.2968 -0.0982 -0.9499
vn 0.3357 -0.8692 0.3629
vn 0.0189 0.8610 0.5082
vn 0.3658 0.9307 -0.0007
vn 0.0107 0.1028 -0.9946
vn -0.0060 0.9939 0.1099
vn 0.9998 0.0217 0.0040
vn -0.0391 0.9992 0.0045
vn 0.0219 -0.0608 0.9979
vn 0.0026 0.9987 0.0501
vn 0.0780 0.1176 -0.9900
vn 0.9999 0.0100 0.0104
vn 0.1094 -0.0630 0.9920
vn -0.0005 -0.9987 -0.0506
vn 0.0445 -0.9990 -0.0050
vn 0.0037 -0.9939 -0.1100
vn -0.0300 -0.0291 -0.9991
vn -0.4250 0.9051 -0.0104
vn -0.0888 0.1616 0.9828
vn -0.0044 0.8812 -0.4728
vn -0.1103 -0.0585 0.9922
vn -0.1327 -0.0000 0.9912
vn -0.9996 0.0206 0.0208
vn -0.9997 -0.0003 0.0253
vn -0.0525 0.1027 -0.9933
vn -0.0630 0.0203 -0.9978
vn -0.9880 -0.1547 -0.0000
vn 0.0006 -0.2515 -0.9679
vn -0.0650 -0.6220 -0.7803
vn -0.1415 -0.7235 0.6757
vn 0.9576 -0.2880 -0.0000
vn 0.9854 -0.1696 -0.0171
vn -0.6958 -0.0050 0.7182
vn -0.6878 -0.0784 -0.7217
vn -0.7901 -0.6125 0.0216
vn 0.1693 0.4407 0.8815
vn -0.6609 -0.3201 -0.6788
vn 0.3914 0.1842 0.9016
vn -0.9532 0.3023 -0.0057
vn -0.9396 0.3422 0.0044
vn -0.9587 0.2841 0.0125
vn 0.9621 -0.2722 -0.0142
vn -0.1577 -0.4217 -0.8929
vn 0.8967 -0.4398 0.0493
vn 0.9396 -0.3422 -0.0044
vn 0.1577 0.4217 0.8929
vn 0.2042 0.5504 0.8095
vn -0.2090 -0.5636 -0.7992
vn 0.1015 0.2665 0.9585
vn -0.9691 0.2398 0.0580
vn -0.9016 0.4304 -0.0440
vn 0.9668 -0.2501 -0.0527
vn -0.1072 -0.2822 -0.9534
vn -0.3037 -0.8397 0.4502
vn -0.0187 0.8611 0.5081
vn -0.3666 0.9304 -0.0026
vn -0.0107 0.1028 -0.9946
vn 0.0060 0.9939 0.1099
vn -0.9998 0.0217 0.0040
vn 0.0391 0.9992 0.0045
vn -0.0219 -0.0608 0.9979
vn -0.0026 0.9987 0.0501
vn -0.0780 0.1176 -0.9900
vn -0.9999 0.0100 0.0104
vn -0.1094 -0.0630 0.9920
vn 0.0005 -0.9987 -0.0506
vn -0.0445 -0.9990 -0.0050
vn -0.0037 -0.9939 -0.1100
vt 0.375000 0.750000
vt 0.625000 0.750000
vt 0.375000 0.500000
vt 0.625000 0.500000
vt 0.250000 0.500000
vt 0.375000 0.375000
vt 0.625000 0.375000
vt 0.250000 0.750000
vt 0.375000 0.875000
vt 0.625000 0.875000
vt 0.541667 0.500000
vt 0.458333 0.500000
vt 0.541667 0.750000
vt 0.458333 0.750000
vt 0.541667 0.875000
vt 0.458333 0.875000
vt 0.541667 0.375000
vt 0.458333 0.375000
vt 0.416667 0.500000
vt 0.416667 0.750000
vt 0.416667 0.875000
vt 0.416667 0.375000
vt 0.416667 0.500000
vt 0.375000 0.500000
vt 0.375000 0.750000
vt 0.416667 0.750000
vt 0.416667 0.500000
vt 0.375000 0.500000
vt 0.375000 0.750000
vt 0.416667 0.750000
vt 0.416667 0.500000
vt 0.375000 0.500000
vt 0.375000 0.750000
vt 0.416667 0.750000
vt 0.416667 0.500000
vt 0.375000 0.500000
vt 0.375000 0.750000
vt 0.416667 0.750000
vt 0.416667 0.500000
vt 0.375000 0.500000
vt 0.375000 0.750000
vt 0.416667 0.750000
vt 0.416667 0.500000
vt 0.375000 0.500000
vt 0.375000 0.750000
vt 0.416667 0.750000
vt 0.416667 0.750000
vt 0.375000 0.750000
vt 0.416667 0.750000
vt 0.375000 0.750000
vt 0.416667 0.750000
vt 0.375000 0.750000
vt 0.416667 0.750000
vt 0.375000 0.750000
vt 0.416667 0.750000
vt 0.416667 0.500000
vt 0.375000 0.500000
vt 0.375000 0.750000
vt 0.625000 0.500000
vt 0.625000 0.750000
vt 0.541667 0.500000
vt 0.541667 0.750000
vt 0.625000 0.500000
vt 0.625000 0.750000
vt 0.541667 0.500000
vt 0.541667 0.750000
vt 0.625000 0.500000
vt 0.625000 0.750000
vt 0.541667 0.500000
vt 0.541667 0.750000
vt 0.625000 0.500000
vt 0.625000 0.750000
vt 0.541667 0.500000
vt 0.541667 0.750000
vt 0.625000 0.500000
vt 0.625000 0.750000
vt 0.541667 0.500000
vt 0.541667 0.750000
vt 0.625000 0.500000
vt 0.625000 0.750000
vt 0.541667 0.500000
vt 0.541667 0.750000
vt 0.625000 0.500000
vt 0.625000 0.750000
vt 0.541667 0.500000
vt 0.541667 0.750000
vt 0.625000 0.375000
vt 0.625000 0.500000
vt 0.625000 0.750000
vt 0.625000 0.875000
vt 0.444732 0.500000
vt 0.430843 0.500000
vt 0.444732 0.750000
vt 0.430843 0.750000
vt 0.444732 0.875000
vt 0.430843 0.875000
vt 0.444732 0.375000
vt 0.430843 0.375000
vt 0.444732 0.500000
vt 0.430843 0.500000
vt 0.444732 0.750000
vt 0.430843 0.750000
vt 0.444732 0.875000
vt 0.430843 0.875000
vt 0.444732 0.375000
vt 0.430843 0.375000
vt 0.375000 0.750000
vt 0.625000 0.750000
vt 0.375000 0.500000
vt 0.625000 0.500000
vt 0.541667 0.500000
vt 0.458333 0.500000
vt 0.541667 0.750000
vt 0.458333 0.750000
vt 0.416667 0.500000
vt 0.416667 0.750000
vt 0.416667 0.500000
vt 0.375000 0.500000
vt 0.375000 0.750000
vt 0.416667 0.750000
vt 0.416667 0.500000
vt 0.375000 0.500000
vt 0.375000 0.750000
vt 0.416667 0.750000
vt 0.416667 0.500000
vt 0.375000 0.500000
vt 0.375000 0.750000
vt 0.416667 0.750000
vt 0.416667 0.500000
vt 0.375000 0.500000
vt 0.375000 0.750000
vt 0.416667 0.750000
vt 0.416667 0.500000
vt 0.375000 0.500000
vt 0.375000 0.750000
vt 0.416667 0.750000
vt 0.416667 0.500000
vt 0.375000 0.500000
vt 0.375000 0.750000
vt 0.416667 0.750000
vt 0.416667 0.750000
vt 0.375000 0.750000
vt 0.416667 0.750000
vt 0.375000 0.750000
vt 0.416667 0.750000
vt 0.375000 0.750000
vt 0.416667 0.750000
vt 0.375000 0.750000
vt 0.416667 0.750000
vt 0.416667 0.500000
vt 0.375000 0.500000
vt 0.375000 0.750000
vt 0.625000 0.500000
vt 0.625000 0.750000
vt 0.541667 0.500000
vt 0.541667 0.750000
vt 0.625000 0.500000
vt 0.625000 0.750000
vt 0.541667 0.500000
vt 0.541667 0.750000
vt 0.625000 0.500000
vt 0.625000 0.750000
vt 0.541667 0.500000
vt 0.541667 0.750000
vt 0.625000 0.500000
vt 0.625000 0.750000
vt 0.541667 0.500000
vt 0.541667 0.750000
vt 0.625000 0.500000
vt 0.625000 0.750000
vt 0.541667 0.500000
vt 0.541667 0.750000
vt 0.625000 0.500000
vt 0.625000 0.750000
vt 0.541667 0.500000
vt 0.541667 0.750000
vt 0.625000 0.500000
vt 0.625000 0.750000
vt 0.541667 0.500000
vt 0.541667 0.750000
vt 0.625000 0.500000
vt 0.625000 0.750000
vt 0.444732 0.500000
vt 0.430843 0.500000
vt 0.444732 0.750000
vt 0.430843 0.750000
vt 0.444732 0.500000
vt 0.430843 0.500000
vt 0.444732 0.750000
vt 0.430843 0.750000
s 0
usemtl skin
f 74/76/49 76/78/49 80/82/49 78/80/49
f 80/82/47 79/81/47 83/85/47 84/86/47
f 73/75/53 74/76/53 78/80/53 77/79/53
f 76/78/54 75/77/54 79/81/54 80/82/54
f 75/77/55 73/75/55 77/79/55 79/81/55
f 83/85/56 81/83/56 82/84/56 84/86/56
f 79/81/45 77/79/45 81/83/45 83/85/45
f 78/80/48 80/82/48 84/86/48 82/84/48
f 77/79/42 78/80/42 82/84/42 81/83/42
f 168/170/101 172/174/101 174/176/101 170/172/101
f 174/176/99 178/180/99 177/179/99 173/175/99
f 167/169/105 171/173/105 172/174/105 168/170/105
f 170/172/106 174/176/106 173/175/106 169/171/106
f 169/171/107 173/175/107 171/173/107 167/169/107
f 177/179/108 178/180/108 176/178/108 175/177/108
f 173/175/97 177/179/97 175/177/97 171/173/97
f 172/174/100 176/178/100 178/180/100 174/176/100
f 171/173/94 175/177/94 176/178/94 172/174/94
usemtl Shirt
f 15/17/1 6/7/1 4/4/1 9/11/1
f 4/4/2 2/2/2 58/60/2 57/59/2
f 11/13/4 2/2/4 8/10/4 13/15/4
f 4/4/5 6/7/5 85/87/5 86/88/5
f 91/93/6 12/14/6 14/16/6 93/95/6
f 12/14/7 11/13/7 13/15/7 14/16/7
f 89/91/8 10/12/8 12/14/8 91/93/8
f 10/12/9 9/11/9 11/13/9 12/14/9
f 95/97/10 16/18/10 10/12/10 89/91/10
f 16/18/11 15/17/11 9/11/11 10/12/11
f 60/62/34 59/61/34 63/65/34 64/66/34
f 2/2/35 11/13/35 60/62/35 58/60/35
f 9/11/36 4/4/36 57/59/36 59/61/36
f 11/13/37 9/11/37 59/61/37 60/62/37
f 62/64/38 64/66/38 68/70/38 66/68/38
f 59/61/39 57/59/39 61/63/39 63/65/39
f 58/60/40 60/62/40 64/66/40 62/64/40
f 57/59/41 58/60/41 62/64/41 61/63/41
f 65/67/42 66/68/42 70/72/42 69/71/42
f 61/63/43 62/64/43 66/68/43 65/67/43
f 64/66/44 63/65/44 67/69/44 68/70/44
f 63/65/45 61/63/45 65/67/45 67/69/45
f 72/74/46 71/73/46 75/77/46 76/78/46
f 68/70/47 67/69/47 71/73/47 72/74/47
f 67/69/45 65/67/45 69/71/45 71/73/45
f 66/68/48 68/70/48 72/74/48 70/72/48
f 71/73/50 69/71/50 73/75/50 75/77/50
f 70/72/51 72/74/51 76/78/51 74/76/51
f 69/71/52 70/72/52 74/76/52 73/75/52
f 8/10/57 2/2/57 87/89/57 88/90/57
f 2/2/58 4/4/58 86/88/58 87/89/58
f 85/87/28 88/90/28 87/89/28 86/88/28
f 15/17/71 109/111/71 108/110/71 6/7/71
f 108/110/72 151/153/72 152/154/72 106/108/72
f 111/113/73 13/15/73 8/10/73 106/108/73
f 108/110/74 179/181/74 85/87/74 6/7/74
f 183/185/75 93/95/75 14/16/75 112/114/75
f 112/114/76 14/16/76 13/15/76 111/113/76
f 181/183/77 183/185/77 112/114/77 110/112/77
f 110/112/78 112/114/78 111/113/78 109/111/78
f 95/97/79 181/183/79 110/112/79 16/18/79
f 16/18/80 110/112/80 109/111/80 15/17/80
f 154/156/86 158/160/86 157/159/86 153/155/86
f 106/108/87 152/154/87 154/156/87 111/113/87
f 109/111/88 153/155/88 151/153/88 108/110/88
f 111/113/89 154/156/89 153/155/89 109/111/89
f 156/158/90 160/162/90 162/164/90 158/160/90
f 153/155/91 157/159/91 155/157/91 151/153/91
f 152/154/92 156/158/92 158/160/92 154/156/92
f 151/153/93 155/157/93 156/158/93 152/154/93
f 159/161/94 163/165/94 164/166/94 160/162/94
f 155/157/95 159/161/95 160/162/95 156/158/95
f 158/160/96 162/164/96 161/163/96 157/159/96
f 157/159/97 161/163/97 159/161/97 155/157/97
f 166/168/98 170/172/98 169/171/98 165/167/98
f 162/164/99 166/168/99 165/167/99 161/163/99
f 161/163/97 165/167/97 163/165/97 159/161/97
f 160/162/100 164/166/100 166/168/100 162/164/100
f 165/167/102 169/171/102 167/169/102 163/165/102
f 164/166/103 168/170/103 170/172/103 166/168/103
f 163/165/104 167/169/104 168/170/104 164/166/104
f 8/10/109 88/90/109 180/182/109 106/108/109
f 106/108/110 180/182/110 179/181/110 108/110/110
f 85/87/28 179/181/28 180/182/28 88/90/28
usemtl belt
f 95/97/60 89/91/60 97/99/60 103/105/60
f 89/91/62 91/93/62 99/101/62 97/99/62
f 91/93/64 93/95/64 101/103/64 99/101/64
f 104/106/65 103/105/65 97/99/65 98/100/65
f 98/100/66 97/99/66 99/101/66 100/102/66
f 100/102/67 99/101/67 101/103/67 102/104/67
f 94/96/68 92/94/68 100/102/68 102/104/68
f 92/94/69 90/92/69 98/100/69 100/102/69
f 90/92/70 96/98/70 104/106/70 98/100/70
f 95/97/112 103/105/112 185/187/112 181/183/112
f 181/183/114 185/187/114 187/189/114 183/185/114
f 183/185/116 187/189/116 101/103/116 93/95/116
f 104/106/117 186/188/117 185/187/117 103/105/117
f 186/188/118 188/190/118 187/189/118 185/187/118
f 188/190/119 102/104/119 101/103/119 187/189/119
f 94/96/120 102/104/120 188/190/120 184/186/120
f 184/186/121 188/190/121 186/188/121 182/184/121
f 182/184/122 186/188/122 104/106/122 96/98/122
usemtl legs
f 5/5/3 3/3/3 1/1/3 7/8/3
f 5/6/12 20/22/12 17/19/12 3/3/12
f 17/19/13 18/20/13 24/26/13 21/23/13
f 1/1/14 18/20/14 19/21/14 7/9/14
f 22/24/15 21/23/15 25/27/15 26/28/15
f 3/3/16 17/19/16 21/23/16 22/24/16
f 18/20/17 1/1/17 23/25/17 24/26/17
f 1/1/18 3/3/18 22/24/18 23/25/18
f 25/27/19 28/30/19 32/34/19 29/31/19
f 21/23/19 24/26/19 28/30/19 25/27/19
f 23/25/20 22/24/20 26/28/20 27/29/20
f 24/26/14 23/25/14 27/29/14 28/30/14
f 32/34/21 31/33/21 35/37/21 36/38/21
f 27/29/20 26/28/20 30/32/20 31/33/20
f 28/30/22 27/29/22 31/33/22 32/34/22
f 26/28/23 25/27/23 29/31/23 30/32/23
f 54/56/24 53/55/24 40/42/24 37/39/24
f 30/32/23 29/31/23 33/35/23 34/36/23
f 29/31/19 32/34/19 36/38/19 33/35/19
f 31/33/20 30/32/20 34/36/20 35/37/20
f 39/41/20 38/40/20 42/44/20 43/45/20
f 56/58/25 55/57/25 38/40/25 39/41/25
f 53/55/26 56/58/26 39/41/26 40/42/26
f 55/57/27 54/56/27 37/39/27 38/40/27
f 42/44/3 41/43/3 44/46/3 43/45/3
f 43/45/3 44/46/3 47/49/3 48/50/3
f 38/40/23 37/39/23 41/43/23 42/44/23
f 37/39/19 40/42/19 44/46/19 41/43/19
f 47/49/19 45/47/19 49/51/19 51/53/19
f 40/42/28 39/41/28 46/48/28 45/47/28
f 39/41/20 43/45/20 48/50/20 46/48/20
f 44/46/19 40/42/19 45/47/19 47/49/19
f 49/51/14 50/52/14 52/54/14 51/53/14
f 48/50/3 47/49/3 51/53/3 52/54/3
f 46/48/20 48/50/20 52/54/20 50/52/20
f 45/47/29 46/48/29 50/52/29 49/51/29
f 34/36/30 33/35/30 54/56/30 55/57/30
f 36/38/31 35/37/31 56/58/31 53/55/31
f 35/37/32 34/36/32 55/57/32 56/58/32
f 33/35/33 36/38/33 53/55/33 54/56/33
f 20/22/59 96/98/59 90/92/59 17/19/59
f 17/19/61 90/92/61 92/94/61 18/20/61
f 18/20/63 92/94/63 94/96/63 19/21/63
f 5/5/3 7/8/3 105/107/3 107/109/3
f 5/6/12 107/109/12 113/115/12 20/22/12
f 113/115/81 115/117/81 118/120/81 114/116/81
f 105/107/14 7/9/14 19/21/14 114/116/14
f 116/118/82 120/122/82 119/121/82 115/117/82
f 107/109/83 116/118/83 115/117/83 113/115/83
f 114/116/84 118/120/84 117/119/84 105/107/84
f 105/107/85 117/119/85 116/118/85 107/109/85
f 119/121/20 123/125/20 126/128/20 122/124/20
f 115/117/20 119/121/20 122/124/20 118/120/20
f 117/119/19 121/123/19 120/122/19 116/118/19
f 118/120/14 122/124/14 121/123/14 117/119/14
f 126/128/21 130/132/21 129/131/21 125/127/21
f 121/123/19 125/127/19 124/126/19 120/122/19
f 122/124/22 126/128/22 125/127/22 121/123/22
f 120/122/23 124/126/23 123/125/23 119/121/23
f 148/150/25 131/133/25 134/136/25 147/149/25
f 124/126/23 128/130/23 127/129/23 123/125/23
f 123/125/20 127/129/20 130/132/20 126/128/20
f 125/127/19 129/131/19 128/130/19 124/126/19
f 133/135/19 137/139/19 136/138/19 132/134/19
f 150/152/24 133/135/24 132/134/24 149/151/24
f 147/149/26 134/136/26 133/135/26 150/152/26
f 149/151/27 132/134/27 131/133/27 148/150/27
f 136/138/3 137/139/3 138/140/3 135/137/3
f 137/139/3 142/144/3 141/143/3 138/140/3
f 132/134/23 136/138/23 135/137/23 131/133/23
f 131/133/20 135/137/20 138/140/20 134/136/20
f 141/143/20 145/147/20 143/145/20 139/141/20
f 134/136/28 139/141/28 140/142/28 133/135/28
f 133/135/19 140/142/19 142/144/19 137/139/19
f 138/140/20 141/143/20 139/141/20 134/136/20
f 143/145/14 145/147/14 146/148/14 144/146/14
f 142/144/3 146/148/3 145/147/3 141/143/3
f 140/142/19 144/146/19 146/148/19 142/144/19
f 139/141/29 143/145/29 144/146/29 140/142/29
f 128/130/30 149/151/30 148/150/30 127/129/30
f 130/132/31 147/149/31 150/152/31 129/131/31
f 129/131/33 150/152/33 149/151/33 128/130/33
f 127/129/32 148/150/32 147/149/32 130/132/32
f 20/22/111 113/115/111 182/184/111 96/98/111
f 113/115/113 114/116/113 184/186/113 182/184/113
f 114/116/115 19/21/115 94/96/115 184/186/115
