# Blender 3.3.1
# www.blender.org
mtllib Fitnessstudio.mtl
o Cube
v 14.778905 0.250000 -12.249999
v 14.778905 -0.000000 -12.249999
v 14.778905 0.250000 19.272070
v 14.778905 -0.000000 19.272070
v -20.173286 -0.000000 -12.249999
v -20.173286 0.250000 19.272070
v -20.173286 -0.000000 19.272070
v 14.278905 -0.000000 -12.249999
v 14.278905 0.250000 19.272070
v 14.278905 -0.000000 19.272070
v 14.278905 0.250000 -12.249999
v -19.673286 -0.000000 -12.249999
v -19.673286 0.250000 19.272070
v -19.673286 -0.000000 19.272070
v -20.173286 -0.000000 18.772070
v 14.778905 0.250000 18.772070
v -20.173286 0.250000 18.772070
v 14.778905 -0.000000 18.772070
v 14.278905 -0.000000 18.772070
v 14.278905 0.250000 18.772070
v -19.673286 -0.000000 18.772070
v -19.673286 0.250000 18.772070
v -20.173286 0.250000 -11.749999
v 14.778905 -0.000000 -11.749999
v -20.173286 -0.000000 -11.749999
v 14.278905 -0.000000 -11.749999
v 14.278905 0.250000 -11.749999
v -19.673286 -0.000000 -11.749999
v -20.173286 0.250000 -12.249999
v -19.673286 15.000001 -11.749997
v -20.173286 15.000001 -11.749997
v -20.173286 15.000001 18.772072
v -19.673286 15.000001 18.772072
v -20.173286 15.000001 19.272072
v -19.673286 0.250000 -12.249999
v 14.778905 0.250000 -11.749999
v -19.673286 15.000000 19.272064
v -19.673286 0.250000 -11.749999
v -20.173286 15.000001 -12.249997
v 14.278905 15.000001 -12.249997
v 14.778905 15.000001 -12.249997
v -19.673286 15.000001 -12.249997
v 14.278905 15.000001 -11.749997
v -11.999998 -0.000000 19.272070
v -11.999998 -0.000000 -12.249999
v -11.999998 0.250000 19.272070
v -11.999998 0.250000 18.772070
v -11.999998 -0.000000 18.772070
v -11.999998 -0.000000 -11.749999
v -11.999998 15.000001 -11.749997
v -11.999998 15.000001 -12.249997
v -11.999998 0.250000 -12.249999
v -11.999998 0.250000 -11.749999
v -8.000000 -0.000000 19.272070
v -8.000000 0.250000 18.772070
v -8.000000 15.000001 -11.749997
v -8.000000 15.000001 -12.249997
v -8.000000 0.250000 -12.249999
v -8.000000 0.250000 -11.749999
v -8.000000 -0.000000 -12.249999
v -8.000000 0.250000 19.272070
v -8.000000 -0.000000 18.772070
v -8.000000 -0.000000 -11.749999
v -20.173286 5.201520 19.272070
v -19.673286 5.201520 18.772070
v -19.673286 5.201520 19.272070
v -19.673286 5.201520 -11.749999
v -20.173286 5.201520 -11.749999
v -20.173286 5.201520 18.772070
v -19.673286 5.201520 -12.249999
v 14.778905 5.201520 -11.749999
v 14.278905 5.201520 -11.749999
v -20.173286 5.201520 -12.249999
v 14.278905 5.201520 -12.249999
v 14.778905 5.201520 -12.249999
v -11.999998 5.201520 -12.249999
v -11.999998 5.201520 -11.749999
v -8.000000 5.201520 -12.249999
v -8.000000 5.201520 -11.749999
v -19.673286 1.000000 18.772070
v -19.673286 1.000000 -11.749999
v -20.173286 1.000000 18.772070
v -19.673286 1.000000 -12.249999
v 14.778905 1.000000 -12.249999
v -20.173286 1.000000 19.272070
v -19.673286 1.000000 19.272070
v -20.173286 1.000000 -11.749999
v 14.778905 1.000000 -11.749999
v 14.278905 1.000000 -11.749999
v -20.173286 1.000000 -12.249999
v 14.278905 1.000000 -12.249999
v -11.999998 1.000000 -12.249999
v -11.999998 1.000000 -11.749999
v -8.000000 1.000000 -12.249999
v -8.000000 1.000000 -11.749999
v -20.173286 -0.000000 -0.057000
v 14.278905 -0.000000 -0.057000
v 14.278905 0.250000 -0.057000
v -19.673286 -0.000000 -0.057000
v -20.173286 0.250000 -0.057000
v 14.778905 -0.000000 -0.057000
v -19.673286 15.000001 -0.056998
v -20.173286 15.000001 -0.056998
v 14.778905 0.250000 -0.057000
v -19.673286 0.250000 -0.057000
v -11.999998 -0.000000 -0.057000
v -11.999998 0.250000 -0.057000
v -8.000000 0.250000 -0.057000
v -8.000000 -0.000000 -0.057000
v -19.673286 5.201520 -0.057000
v -20.173286 5.201520 -0.057000
v -20.173286 1.000000 -0.057000
v -19.673286 1.000000 -0.057000
v -20.173286 0.250003 -4.057000
v 14.778905 0.000003 -4.057000
v -20.173286 15.000004 -4.056998
v -20.173286 5.201523 -4.057000
v -20.173286 1.000003 -4.057000
v -20.173286 0.000003 -4.057000
v 14.278905 0.000003 -4.057000
v 14.278905 0.250003 -4.057000
v -19.673286 0.000003 -4.057000
v -19.673286 15.000004 -4.056998
v 14.778905 0.250003 -4.057000
v -19.673286 0.250003 -4.057000
v -11.999998 0.000003 -4.057000
v -11.999998 0.250003 -4.057000
v -8.000000 0.250003 -4.057000
v -8.000000 0.000003 -4.057000
v -19.673286 5.201523 -4.057000
v -19.673286 1.000003 -4.057000
v -0.307000 -0.000000 19.272070
v -0.307000 0.250000 18.772070
v -0.307000 15.000001 -11.749998
v -0.307000 15.000001 -12.249998
v -0.307000 0.250000 -12.250000
v -0.307000 0.250000 -11.750000
v -0.307000 -0.000000 -12.250000
v -0.307000 0.250000 19.272070
v -0.307000 -0.000000 18.772070
v -0.307000 -0.000000 -11.750000
v -0.307000 5.201520 -12.250000
v -0.307000 5.201520 -11.750000
v -0.307000 1.000000 -11.750000
v -0.307000 1.000000 -12.250000
v -0.307000 0.250000 -0.057000
v -0.307000 -0.000000 -0.057000
v -0.307000 0.000003 -4.057001
v -0.307000 0.250003 -4.057001
v 3.693000 -0.000000 19.272068
v 3.693000 0.250000 18.772068
v 3.693000 15.000001 -11.749999
v 3.693000 15.000001 -12.249999
v 3.693000 0.250000 -12.250001
v 3.693000 0.250000 -11.750001
v 3.693000 5.201520 -12.250001
v 3.693000 1.000000 -12.250001
v 3.693000 0.250000 -0.057002
v 3.693000 0.250003 -4.057002
v 3.693000 -0.000000 -12.250001
v 3.693000 0.250000 19.272068
v 3.693000 -0.000000 18.772068
v 3.693000 -0.000000 -11.750001
v 3.693000 5.201520 -11.750001
v 3.693000 1.000000 -11.750001
v 3.693000 -0.000000 -0.057002
v 3.693000 0.000003 -4.057002
v -20.173286 14.500000 19.272072
v -19.673286 14.500000 19.272064
v -20.173286 14.500000 -11.749997
v 14.778905 14.500000 -11.749997
v 14.278905 14.500000 -11.749997
v -20.173286 14.500000 -12.249997
v 14.278905 14.500000 -12.249997
v -11.999998 14.500000 -12.249997
v -11.999998 14.500000 -11.749997
v -8.000000 14.500000 -12.249997
v -8.000000 14.500000 -11.749997
v -19.673286 14.500000 18.772064
v -19.673286 14.500000 -11.749997
v -20.173286 14.500000 18.772072
v -19.673286 14.500000 -12.249997
v 14.778905 14.500000 -12.249997
v -19.673286 14.500000 -0.056998
v -20.173286 14.500000 -0.056998
v -20.173286 14.500003 -4.056998
v -19.673286 14.500003 -4.056998
v -0.307000 14.500000 -12.249998
v -0.307000 14.500000 -11.749998
v 3.693000 14.500000 -12.249999
v 3.693000 14.500000 -11.749999
v 14.778905 14.500000 -4.056995
v 14.278905 14.500000 -4.056995
v -0.307000 14.500000 -4.056995
v 3.693000 14.500000 -4.056995
v -11.999998 14.500000 -4.056995
v -8.000000 14.500000 -4.056995
v -11.999998 14.500000 -0.056998
v -8.000000 14.500000 -0.056998
v -0.307000 14.500000 -0.056998
v 3.693000 14.500000 -0.056998
v 14.778905 14.500000 -0.056998
v 14.278905 14.500000 -0.056998
v -11.999998 14.500000 18.772064
v -8.000000 14.500000 18.772064
v -0.307000 14.500000 18.772064
v 3.693000 14.500000 18.772064
v -11.999998 14.500000 19.272064
v -8.000000 14.500000 19.272064
v -0.307000 14.500000 19.272064
v 3.693000 14.500000 19.272064
v 14.778905 14.500000 18.772064
v 14.278905 14.500000 18.772064
v 14.778905 14.500000 19.272064
v 14.278905 14.500000 19.272064
v -11.999998 15.000000 19.272064
v -8.000000 15.000000 19.272064
v -0.307000 15.000000 19.272064
v 3.693000 15.000000 19.272064
v 14.778905 15.000000 19.272064
v 14.278905 15.000000 19.272064
v 14.778905 15.000000 -0.056998
v 14.778905 15.000000 18.772064
v 14.778905 15.000000 -11.749997
v 14.778905 15.000000 -4.056995
v 14.278905 15.000000 -0.056998
v 14.278905 15.000000 -4.056995
v 3.693000 15.000000 -0.056998
v 3.693000 15.000000 -4.056995
v -0.307000 15.000000 -0.056998
v -0.307000 15.000000 -4.056995
v -8.000000 15.000000 -0.056998
v -8.000000 15.000000 -4.056995
v -12.000000 15.000000 -0.056998
v -12.000000 15.000000 -4.056995
v -12.000000 15.000001 18.772072
v -8.000000 15.000000 18.772064
v -0.307000 15.000000 18.772064
v 3.693000 15.000000 18.772064
v 14.278905 15.000000 18.772064
vn -0.0000 -0.0000 1.0000
vn -1.0000 -0.0000 -0.0000
vn -0.0000 -1.0000 -0.0000
vn 1.0000 -0.0000 -0.0000
vn -0.0000 -0.0000 -1.0000
vn -0.0000 1.0000 -0.0000
vt 0.625000 0.500000
vt 0.375000 0.500000
vt 0.625000 0.750000
vt 0.375000 0.750000
vt 0.375000 0.250000
vt 0.125000 0.500000
vt 0.625000 0.000000
vt 0.625000 1.000000
vt 0.375000 1.000000
vt 0.125000 0.750000
vt 0.375000 0.000000
vt 0.375000 0.489502
vt 0.364502 0.500000
vt 0.625000 0.760497
vt 0.635498 0.750000
vt 0.364502 0.750000
vt 0.375000 0.760498
vt 0.625000 0.489502
vt 0.635498 0.500000
vt 0.152799 0.500000
vt 0.375000 0.277799
vt 0.847201 0.750000
vt 0.625000 0.972201
vt 0.375000 0.972201
vt 0.152799 0.750000
vt 0.125000 0.729372
vt 0.375000 0.020628
vt 0.625000 0.729372
vt 0.625000 0.020628
vt 0.375000 0.729372
vt 0.364502 0.729372
vt 0.635498 0.729372
vt 0.152799 0.729372
vt 0.847201 0.729372
vt 0.875000 0.515575
vt 0.625000 0.234425
vt 0.375000 0.515575
vt 0.375000 0.234425
vt 0.125000 0.515575
vt 0.364502 0.515575
vt 0.635498 0.515575
vt 0.152799 0.515575
vt 0.625000 0.250000
vt 0.875000 0.500000
vt 0.847201 0.515575
vt 0.625000 0.234425
vt 0.875000 0.515575
vt 0.625000 0.020628
vt 0.875000 0.729372
vt 0.847201 0.729372
vt 0.625000 0.000000
vt 0.625000 1.000000
vt 0.875000 0.750000
vt 0.625000 0.277799
vt 0.847201 0.500000
vt 0.625000 0.515575
vt 0.847201 0.750000
vt 0.625000 0.972201
vt 0.847201 0.515575
vt 0.875000 0.500000
vt 0.635498 0.500000
vt 0.625000 0.500000
vt 0.847201 0.500000
vt 0.635498 0.515575
vt 0.375000 0.887710
vt 0.237290 0.750000
vt 0.237290 0.500000
vt 0.375000 0.362290
vt 0.762710 0.750000
vt 0.625000 0.887709
vt 0.762710 0.729372
vt 0.237290 0.729372
vt 0.237290 0.515575
vt 0.762710 0.515575
vt 0.762710 0.500000
vt 0.625000 0.362290
vt 0.762710 0.500000
vt 0.762710 0.515575
vt 0.375000 0.860083
vt 0.264917 0.750000
vt 0.735083 0.729372
vt 0.735083 0.515575
vt 0.735083 0.500000
vt 0.735083 0.500000
vt 0.625000 0.389917
vt 0.735083 0.515575
vt 0.264917 0.500000
vt 0.375000 0.389917
vt 0.625000 0.860083
vt 0.735083 0.750000
vt 0.264917 0.729372
vt 0.264917 0.515575
vt 0.625000 1.000000
vt 0.625000 0.000000
vt 0.847201 0.729372
vt 0.625000 0.972201
vt 0.847201 0.750000
vt 0.847201 0.515575
vt 0.625000 0.234425
vt 0.875000 0.515575
vt 0.625000 0.020628
vt 0.847201 0.500000
vt 0.625000 0.515575
vt 0.635498 0.515575
vt 0.875000 0.500000
vt 0.635498 0.500000
vt 0.625000 0.500000
vt 0.762710 0.500000
vt 0.762710 0.515575
vt 0.735083 0.500000
vt 0.735083 0.515575
vt 0.847201 0.729372
vt 0.847201 0.515575
vt 0.625000 0.020628
vt 0.847201 0.500000
vt 0.625000 0.500000
vt 0.625000 0.000000
vt 0.625000 1.000000
vt 0.847201 0.750000
vt 0.625000 0.972201
vt 0.875000 0.515575
vt 0.625000 0.234425
vt 0.625000 0.515575
vt 0.635498 0.515575
vt 0.875000 0.500000
vt 0.635498 0.500000
vt 0.762710 0.500000
vt 0.762710 0.515575
vt 0.735083 0.500000
vt 0.735083 0.515575
vt 0.125000 0.645090
vt 0.375000 0.104910
vt 0.364502 0.645090
vt 0.635498 0.645090
vt 0.152799 0.645090
vt 0.625000 0.104910
vt 0.375000 0.645090
vt 0.847201 0.645090
vt 0.875000 0.645090
vt 0.625000 0.104910
vt 0.625000 0.645090
vt 0.847201 0.645090
vt 0.237290 0.645090
vt 0.762710 0.645090
vt 0.735083 0.645090
vt 0.264917 0.645090
vt 0.000000 0.000000
vt 0.847201 0.645090
vt 0.000000 0.000000
vt 0.625000 0.104910
vt 0.625000 0.104910
vt 0.000000 0.000000
vt 0.847201 0.645090
vt 0.000000 0.000000
vt 0.625000 0.169668
vt 0.375000 0.580332
vt 0.625000 0.169668
vt 0.875000 0.580332
vt 0.000000 0.000000
vt 0.625000 0.169668
vt 0.625000 0.169668
vt 0.000000 0.000000
vt 0.125000 0.580332
vt 0.375000 0.169668
vt 0.364502 0.580332
vt 0.635498 0.580332
vt 0.152799 0.580332
vt 0.847201 0.580332
vt 0.625000 0.580332
vt 0.847201 0.580332
vt 0.237290 0.580332
vt 0.762710 0.580332
vt 0.735083 0.580332
vt 0.264917 0.580332
vt 0.000000 0.000000
vt 0.847201 0.580332
vt 0.847201 0.580332
vt 0.000000 0.000000
vt 0.375000 0.822053
vt 0.302946 0.750000
vt 0.697053 0.729372
vt 0.697053 0.515575
vt 0.697053 0.500000
vt 0.697053 0.500000
vt 0.625000 0.427946
vt 0.697053 0.515575
vt 0.302946 0.500000
vt 0.375000 0.427946
vt 0.697054 0.750000
vt 0.625000 0.822053
vt 0.302947 0.729372
vt 0.302946 0.515575
vt 0.697053 0.500000
vt 0.697053 0.515575
vt 0.697053 0.515575
vt 0.697053 0.500000
vt 0.697054 0.645090
vt 0.302946 0.645090
vt 0.302946 0.580332
vt 0.697054 0.580332
vt 0.375000 0.798061
vt 0.326939 0.750000
vt 0.673061 0.729372
vt 0.673061 0.515575
vt 0.673061 0.500000
vt 0.673061 0.500000
vt 0.625000 0.451939
vt 0.673061 0.515575
vt 0.673061 0.500000
vt 0.673061 0.500000
vt 0.673061 0.645090
vt 0.673061 0.580332
vt 0.326939 0.500000
vt 0.375000 0.451939
vt 0.625000 0.798061
vt 0.673061 0.750000
vt 0.326939 0.729372
vt 0.326939 0.515575
vt 0.673061 0.515575
vt 0.673061 0.515575
vt 0.326939 0.645090
vt 0.326939 0.580332
vt 0.625000 1.000000
vt 0.625000 0.000000
vt 0.625000 0.972201
vt 0.847201 0.750000
vt 0.625000 0.234425
vt 0.875000 0.515575
vt 0.625000 0.515575
vt 0.635498 0.515575
vt 0.000000 0.000000
vt 0.875000 0.500000
vt 0.635498 0.500000
vt 0.762710 0.500000
vt 0.762710 0.515575
vt 0.000000 0.000000
vt 0.735083 0.500000
vt 0.735083 0.515575
vt 0.000000 0.000000
vt 0.847201 0.729372
vt 0.847201 0.515575
vt 0.000000 0.000000
vt 0.625000 0.020628
vt 0.847201 0.500000
vt 0.625000 0.500000
vt 0.847201 0.645090
vt 0.000000 0.000000
vt 0.625000 0.104910
vt 0.625000 0.169668
vt 0.847201 0.580332
vt 0.000000 0.000000
vt 0.697053 0.500000
vt 0.697053 0.515575
vt 0.000000 0.000000
vt 0.673061 0.500000
vt 0.673061 0.515575
vt 0.000000 0.000000
vt 0.625000 0.515575
vt 0.000000 0.000000
vt 0.635498 0.515575
vt 0.000000 0.000000
vt 0.697053 0.515575
vt 0.000000 0.000000
vt 0.673061 0.515575
vt 0.762710 0.515575
vt 0.000000 0.000000
vt 0.000000 0.000000
vt 0.735083 0.515575
vt 0.762710 0.515575
vt 0.000000 0.000000
vt 0.735083 0.515575
vt 0.697053 0.515575
vt 0.673061 0.515575
vt 0.625000 0.515575
vt 0.635498 0.515575
vt 0.762710 0.515575
vt 0.735083 0.515575
vt 0.697053 0.515575
vt 0.673061 0.515575
vt 0.762710 0.515575
vt 0.735083 0.515575
vt 0.697053 0.515575
vt 0.673061 0.515575
vt 0.625000 0.515575
vt 0.635498 0.515575
vt 0.625000 0.515575
vt 0.635498 0.515575
vt 0.762710 0.515575
vt 0.735083 0.515575
vt 0.697053 0.515575
vt 0.673061 0.515575
vt 0.625000 0.515575
vt 0.635498 0.515575
vt 0.625000 0.515575
vt 0.625000 0.515575
vt 0.000000 0.000000
vt 0.625000 0.515575
vt 0.000000 0.000000
vt 0.625000 0.515575
vt 0.000000 0.000000
vt 0.625000 0.515575
vt 0.000000 0.000000
vt 0.625000 0.515575
vt 0.000000 0.000000
vt 0.625000 0.515575
vt 0.000000 0.000000
vt 0.625000 0.515575
vt 0.000000 0.000000
vt 0.000000 0.000000
vt 0.000000 0.000000
vt 0.000000 0.000000
vt 0.000000 0.000000
vt 0.000000 0.000000
s 0
usemtl Material
f 14/24/1 13/23/1 6/8/1 7/9/1
f 25/38/2 23/36/2 29/43/2 5/5/2
f 19/31/3 18/30/3 4/4/3 10/16/3
f 18/30/4 16/28/4 3/3/4 4/4/4
f 8/12/5 11/18/5 1/1/5 2/2/5
f 160/214/5 154/207/5 11/18/5 8/12/5
f 162/217/3 19/31/3 10/16/3 150/202/3
f 4/4/1 3/3/1 9/14/1 10/17/1
f 16/28/6 20/32/6 9/15/6 3/3/6
f 15/26/3 21/33/3 14/25/3 7/10/3
f 5/5/5 29/43/5 35/54/5 12/21/5
f 44/65/1 46/70/1 13/23/1 14/24/1
f 47/71/6 22/34/6 13/22/6 46/69/6
f 107/144/6 105/142/6 22/34/6 47/71/6
f 96/131/3 99/135/3 21/33/3 15/26/3
f 104/141/6 98/134/6 20/32/6 16/28/6
f 166/221/3 97/133/3 19/31/3 162/217/3
f 101/137/4 104/141/4 16/28/4 18/30/4
f 97/133/3 101/137/3 18/30/3 19/31/3
f 7/11/2 6/7/2 17/29/2 15/27/2
f 181/243/2 168/224/2 34/51/2 32/48/2
f 8/13/3 2/2/3 24/37/3 26/40/3
f 2/2/4 1/1/4 36/56/4 24/37/4
f 160/213/3 8/13/3 26/40/3 163/218/3
f 5/6/3 12/20/3 28/42/3 25/39/3
f 119/164/2 114/155/2 23/36/2 25/38/2
f 182/244/5 173/232/5 39/60/5 42/63/5
f 185/248/2 181/243/2 32/48/2 103/140/2
f 168/223/1 169/225/1 37/58/1 34/52/1
f 102/138/6 103/139/6 32/49/6 33/50/6
f 33/50/6 32/49/6 34/53/6 37/57/6
f 42/63/6 39/60/6 31/47/6 30/45/6
f 41/62/6 40/61/6 43/64/6 224/297/6
f 51/75/6 42/63/6 30/45/6 50/74/6
f 183/245/5 174/233/5 40/61/5 41/62/5
f 175/234/5 182/244/5 42/63/5 51/75/5
f 173/232/2 170/228/2 31/47/2 39/60/2
f 177/237/5 175/234/5 51/75/5 57/83/5
f 57/83/6 51/75/6 50/74/6 56/82/6
f 12/20/3 45/67/3 49/73/3 28/42/3
f 99/135/3 106/143/3 48/72/3 21/33/3
f 108/145/6 107/144/6 47/71/6 55/81/6
f 55/81/6 47/71/6 46/69/6 61/90/6
f 54/79/1 61/89/1 46/70/1 44/65/1
f 21/33/3 48/72/3 44/66/3 14/25/3
f 12/21/5 35/54/5 52/76/5 45/68/5
f 132/179/1 139/190/1 61/89/1 54/79/1
f 133/181/6 55/81/6 61/90/6 139/189/6
f 146/197/6 108/145/6 55/81/6 133/181/6
f 135/183/6 57/83/6 56/82/6 134/182/6
f 188/252/5 177/237/5 57/83/5 135/183/5
f 45/67/3 60/87/3 63/92/3 49/73/3
f 106/143/3 109/146/3 62/91/3 48/72/3
f 48/72/3 62/91/3 54/80/3 44/66/3
f 45/68/5 52/76/5 58/85/5 60/88/5
f 145/196/5 94/129/5 78/110/5 142/193/5
f 81/113/1 93/128/1 77/109/1 67/98/1
f 90/125/2 87/121/2 68/100/2 73/105/2
f 92/127/5 83/115/5 70/102/5 76/108/5
f 88/123/4 84/116/4 75/107/4 71/103/4
f 89/124/1 88/123/1 71/103/1 72/104/1
f 84/116/5 91/126/5 74/106/5 75/107/5
f 85/118/1 86/120/1 66/96/1 64/93/1
f 131/177/4 81/113/4 67/98/4 130/176/4
f 112/151/2 82/114/2 69/101/2 111/150/2
f 165/220/1 89/124/1 72/104/1 164/219/1
f 83/115/5 90/125/5 73/105/5 70/102/5
f 86/119/4 80/112/4 65/95/4 66/97/4
f 82/114/2 85/117/2 64/94/2 69/101/2
f 17/29/2 6/7/2 85/117/2 82/114/2
f 13/22/4 22/34/4 80/112/4 86/119/4
f 35/55/5 29/44/5 90/125/5 83/115/5
f 155/208/1 27/41/1 89/124/1 165/220/1
f 100/136/2 17/29/2 82/114/2 112/151/2
f 125/170/4 38/59/4 81/113/4 131/177/4
f 6/8/1 13/23/1 86/120/1 85/118/1
f 1/1/5 11/19/5 91/126/5 84/116/5
f 27/41/1 36/56/1 88/123/1 89/124/1
f 36/56/4 1/1/4 84/116/4 88/123/4
f 52/77/5 35/55/5 83/115/5 92/127/5
f 29/44/2 23/35/2 87/121/2 90/125/2
f 58/84/5 52/77/5 92/127/5 94/129/5
f 38/59/1 53/78/1 93/128/1 81/113/1
f 136/184/5 58/84/5 94/129/5 145/196/5
f 53/78/1 59/86/1 95/130/1 93/128/1
f 76/108/4 77/109/4 93/128/4 92/127/4
f 92/127/6 93/128/6 95/130/6 94/129/6
f 78/110/2 94/129/2 95/130/2 79/111/2
f 79/111/3 77/109/3 76/108/3 78/110/3
f 22/34/4 105/142/4 113/153/4 80/112/4
f 114/155/2 100/136/2 112/151/2 118/161/2
f 80/112/4 113/153/4 110/148/4 65/95/4
f 126/171/3 129/174/3 109/146/3 106/143/3
f 149/200/6 128/173/6 108/145/6 146/197/6
f 128/173/6 127/172/6 107/144/6 108/145/6
f 122/167/3 126/171/3 106/143/3 99/135/3
f 123/168/6 116/158/6 103/139/6 102/138/6
f 186/249/2 185/248/2 103/140/2 116/157/2
f 15/27/2 17/29/2 100/136/2 96/132/2
f 120/165/3 115/156/3 101/137/3 97/133/3
f 115/156/4 124/169/4 104/141/4 101/137/4
f 167/222/3 120/165/3 97/133/3 166/221/3
f 124/169/6 121/166/6 98/134/6 104/141/6
f 119/163/3 122/167/3 99/135/3 96/131/3
f 127/172/6 125/170/6 105/142/6 107/144/6
f 53/78/6 38/59/6 125/170/6 127/172/6
f 25/39/3 28/42/3 122/167/3 119/163/3
f 36/56/6 27/41/6 121/166/6 124/169/6
f 163/218/3 26/40/3 120/165/3 167/222/3
f 24/37/4 36/56/4 124/169/4 115/156/4
f 26/40/3 24/37/3 115/156/3 120/165/3
f 170/227/2 186/249/2 116/157/2 31/46/2
f 30/45/6 31/47/6 116/158/6 123/168/6
f 28/42/3 49/73/3 126/171/3 122/167/3
f 59/86/6 53/78/6 127/172/6 128/173/6
f 137/186/6 59/86/6 128/173/6 149/200/6
f 49/73/3 63/92/3 129/174/3 126/171/3
f 87/122/2 118/161/2 117/160/2 68/99/2
f 23/36/2 114/155/2 118/161/2 87/122/2
f 105/142/4 125/170/4 131/177/4 113/153/4
f 96/132/2 100/136/2 114/155/2 119/164/2
f 111/150/5 110/148/5 113/153/5 112/151/5
f 131/178/6 118/162/6 112/152/6 113/154/6
f 118/162/1 131/178/1 130/175/1 117/159/1
f 117/159/3 130/175/3 110/147/3 111/149/3
f 155/208/6 137/186/6 149/200/6 159/212/6
f 63/92/3 141/192/3 148/199/3 129/174/3
f 129/174/3 148/199/3 147/198/3 109/146/3
f 159/212/6 149/200/6 146/197/6 158/211/6
f 154/206/5 136/184/5 145/196/5 157/210/5
f 59/86/1 137/186/1 144/195/1 95/130/1
f 95/130/1 144/195/1 143/194/1 79/111/1
f 190/255/5 188/252/5 135/183/5 153/205/5
f 153/205/6 135/183/6 134/182/6 152/204/6
f 158/211/6 146/197/6 133/181/6 151/203/6
f 151/203/6 133/181/6 139/189/6 161/216/6
f 150/201/1 161/215/1 139/190/1 132/179/1
f 60/87/3 138/187/3 141/192/3 63/92/3
f 109/146/3 147/198/3 140/191/3 62/91/3
f 62/91/3 140/191/3 132/180/3 54/80/3
f 60/88/5 58/85/5 136/185/5 138/188/5
f 10/17/1 9/14/1 161/215/1 150/201/1
f 20/32/6 151/203/6 161/216/6 9/15/6
f 98/134/6 158/211/6 151/203/6 20/32/6
f 40/61/6 153/205/6 152/204/6 43/64/6
f 174/233/5 190/255/5 153/205/5 40/61/5
f 91/126/5 157/210/5 156/209/5 74/106/5
f 11/19/5 154/206/5 157/210/5 91/126/5
f 121/166/6 159/212/6 158/211/6 98/134/6
f 27/41/6 155/208/6 159/212/6 121/166/6
f 141/192/3 163/218/3 167/222/3 148/199/3
f 148/199/3 167/222/3 166/221/3 147/198/3
f 137/186/1 155/208/1 165/220/1 144/195/1
f 138/187/3 160/213/3 163/218/3 141/192/3
f 147/198/3 166/221/3 162/217/3 140/191/3
f 140/191/3 162/217/3 150/202/3 132/180/3
f 138/188/5 136/185/5 154/207/5 160/214/5
f 143/194/4 144/195/4 145/196/4 142/193/4
f 165/220/6 157/210/6 145/196/6 144/195/6
f 156/209/2 157/210/2 165/220/2 164/219/2
f 164/219/3 143/194/3 142/193/3 156/209/3
f 143/194/1 164/219/1 191/256/1 189/253/1
f 74/106/5 156/209/5 190/255/5 174/233/5
f 79/111/1 143/194/1 189/253/1 178/238/1
f 156/209/5 142/193/5 188/252/5 190/255/5
f 110/148/4 130/176/4 187/250/4 184/246/4
f 68/99/2 117/160/2 186/249/2 170/227/2
f 117/160/2 111/150/2 185/248/2 186/249/2
f 65/95/4 110/148/4 184/246/4 179/240/4
f 77/109/1 79/111/1 178/238/1 176/235/1
f 142/193/5 78/110/5 177/237/5 188/252/5
f 67/98/1 77/109/1 176/235/1 180/241/1
f 78/110/5 76/108/5 175/234/5 177/237/5
f 73/105/2 68/100/2 170/228/2 173/232/2
f 76/108/5 70/102/5 182/244/5 175/234/5
f 71/103/4 75/107/4 183/245/4 171/229/4
f 72/104/1 71/103/1 171/229/1 172/230/1
f 75/107/5 74/106/5 174/233/5 183/245/5
f 64/93/1 66/96/1 169/225/1 168/223/1
f 130/176/4 67/98/4 180/241/4 187/250/4
f 111/150/2 69/101/2 181/243/2 185/248/2
f 164/219/1 72/104/1 172/230/1 191/256/1
f 70/102/5 73/105/5 173/232/5 182/244/5
f 66/97/4 65/95/4 179/240/4 169/226/4
f 69/101/2 64/94/2 168/224/2 181/243/2
f 172/230/3 171/229/3 192/258/3 193/260/3
f 189/253/3 191/256/3 195/264/3 194/262/3
f 172/231/3 193/259/3 195/263/3 191/257/3
f 176/235/3 178/238/3 197/268/3 196/265/3
f 189/254/3 194/261/3 197/267/3 178/239/3
f 176/236/3 196/266/3 187/251/3 180/242/3
f 196/265/3 197/268/3 199/271/3 198/269/3
f 187/251/3 196/266/3 198/270/3 184/247/3
f 194/262/3 195/264/3 201/273/3 200/272/3
f 194/262/3 200/272/3 199/271/3 197/268/3
f 193/260/3 192/258/3 202/274/3 203/275/3
f 193/260/3 203/275/3 201/273/3 195/264/3
f 198/269/3 199/271/3 205/277/3 204/276/3
f 184/247/3 198/270/3 204/276/3 179/240/3
f 200/272/3 201/273/3 207/279/3 206/278/3
f 200/272/3 206/278/3 205/277/3 199/271/3
f 203/275/3 202/274/3 212/284/3 213/285/3
f 203/275/3 213/285/3 207/279/3 201/273/3
f 204/276/3 205/277/3 209/281/3 208/280/3
f 179/240/3 204/276/3 208/280/3 169/226/3
f 206/278/3 207/279/3 211/283/3 210/282/3
f 206/278/3 210/282/3 209/281/3 205/277/3
f 213/285/3 212/284/3 214/286/3 215/287/3
f 207/279/3 213/285/3 215/287/3 211/283/3
f 208/280/1 209/281/1 217/289/1 216/288/1
f 169/226/1 208/280/1 216/288/1 37/58/1
f 210/282/1 211/283/1 219/291/1 218/290/1
f 210/282/1 218/290/1 217/289/1 209/281/1
f 215/287/1 214/286/1 220/292/1 221/293/1
f 215/287/1 221/293/1 219/291/1 211/283/1
f 212/284/4 202/274/4 222/294/4 223/295/4
f 212/284/4 223/295/4 220/292/4 214/286/4
f 225/298/4 192/258/4 171/229/4 224/296/4
f 41/62/4 224/296/4 171/229/4 183/245/4
f 192/258/4 225/298/4 222/294/4 202/274/4
f 222/294/6 225/298/6 227/300/6 226/299/6
f 225/298/6 224/297/6 43/64/6 227/300/6
f 226/299/6 227/300/6 229/302/6 228/301/6
f 152/204/6 229/302/6 227/300/6 43/64/6
f 228/301/6 229/302/6 231/304/6 230/303/6
f 134/182/6 231/304/6 229/302/6 152/204/6
f 230/303/6 231/304/6 233/306/6 232/305/6
f 56/82/6 233/306/6 231/304/6 134/182/6
f 232/305/6 233/306/6 235/308/6 234/307/6
f 50/74/6 235/308/6 233/306/6 56/82/6
f 123/168/6 102/138/6 234/307/6 235/308/6
f 50/74/6 30/45/6 123/168/6 235/308/6
f 236/309/6 33/50/6 37/58/6 216/288/6
f 33/50/6 236/309/6 234/307/6 102/138/6
f 237/310/6 236/309/6 216/288/6 217/289/6
f 232/305/6 234/307/6 236/309/6 237/310/6
f 218/290/6 238/311/6 237/310/6 217/289/6
f 239/312/6 238/311/6 218/290/6 219/291/6
f 221/293/6 240/313/6 239/312/6 219/291/6
f 221/293/6 220/292/6 223/295/6 240/313/6
f 223/295/6 222/294/6 226/299/6 240/313/6
f 226/299/6 228/301/6 239/312/6 240/313/6
f 228/301/6 230/303/6 238/311/6 239/312/6
f 230/303/6 232/305/6 237/310/6 238/311/6
