# Blender 3.3.1
# www.blender.org
mtllib Fitnessstudio.mtl
o Cube
v 10.000000 0.250000 -12.249999
v 10.000000 -0.000000 -12.249999
v 10.000000 0.250000 12.250006
v 10.000000 -0.000000 12.250006
v -20.173286 -0.000000 -12.249999
v -20.173286 0.250000 12.250006
v -20.173286 -0.000000 12.250006
v 9.500000 -0.000000 -12.249999
v 9.500000 0.250000 12.250006
v 9.500000 -0.000000 12.250006
v 9.500000 0.250000 -12.249999
v -19.673286 -0.000000 -12.249999
v -19.673286 0.250000 12.250006
v -19.673286 -0.000000 12.250006
v -20.173286 -0.000000 11.750006
v 10.000000 0.250000 11.750006
v -20.173286 0.250000 11.750006
v 10.000000 -0.000000 11.750006
v 9.500000 -0.000000 11.750006
v 9.500000 0.250000 11.750006
v -19.673286 -0.000000 11.750006
v -19.673286 0.250000 11.750006
v -20.173286 0.250000 -11.749999
v 10.000000 -0.000000 -11.749999
v -20.173286 -0.000000 -11.749999
v 9.500000 -0.000000 -11.749999
v 9.500000 0.250000 -11.749999
v -19.673286 -0.000000 -11.749999
v -20.173286 0.250000 -12.249999
v -19.673286 5.500000 -11.749999
v -20.173286 5.500000 -11.749999
v -20.173286 5.500000 11.750006
v -19.673286 5.500000 11.750006
v -20.173286 5.500000 12.250006
v -19.673286 0.250000 -12.249999
v 10.000000 0.250000 -11.749999
v -19.673286 5.500000 12.250006
v -19.673286 0.250000 -11.749999
v -20.173286 5.500000 -12.249999
v 9.500000 5.500000 -12.249999
v 10.000000 5.500000 -12.249999
v -19.673286 5.500000 -12.249999
v 10.000000 5.500000 -11.749999
v 9.500000 5.500000 -11.749999
v -8.030187 -0.000000 12.250006
v -8.030187 -0.000000 -12.249999
v -8.030187 0.250000 12.250006
v -8.030187 0.250000 11.750006
v -8.030187 -0.000000 11.750006
v -8.030187 -0.000000 -11.749999
v -8.030187 5.500000 -11.749999
v -8.030187 5.500000 -12.249999
v -8.030187 0.250000 -12.249999
v -8.030187 0.250000 -11.749999
v -4.223126 -0.000000 12.250006
v -4.223126 0.250000 11.750006
v -4.223126 5.500000 -11.749999
v -4.223126 5.500000 -12.249999
v -4.223126 0.250000 -12.249999
v -4.223126 0.250000 -11.749999
v -4.223125 -0.000000 -12.249999
v -4.223125 0.250000 12.250006
v -4.223125 -0.000000 11.750006
v -4.223125 -0.000000 -11.749999
v -20.173286 4.750000 12.250006
v -19.673286 4.750000 11.750006
v -19.673286 4.750000 12.250006
v -19.673286 4.750000 -11.749999
v -20.173286 4.750000 -11.749999
v -20.173286 4.750000 11.750006
v -19.673286 4.750000 -12.249999
v 10.000000 4.750000 -11.749999
v 9.500000 4.750000 -11.749999
v -20.173286 4.750000 -12.249999
v 9.500000 4.750000 -12.249999
v 10.000000 4.750000 -12.249999
v -8.030187 4.750000 -12.249999
v -8.030187 4.750000 -11.749999
v -4.223126 4.750000 -12.249999
v -4.223126 4.750000 -11.749999
v -19.673286 1.000000 11.750006
v -19.673286 1.000000 -11.749999
v -20.173286 1.000000 11.750006
v -19.673286 1.000000 -12.249999
v 10.000000 1.000000 -12.249999
v -20.173286 1.000000 12.250006
v -19.673286 1.000000 12.250006
v -20.173286 1.000000 -11.749999
v 10.000000 1.000000 -11.749999
v 9.500000 1.000000 -11.749999
v -20.173286 1.000000 -12.249999
v 9.500000 1.000000 -12.249999
v -8.030187 1.000000 -12.249999
v -8.030187 1.000000 -11.749999
v -4.223126 1.000000 -12.249999
v -4.223126 1.000000 -11.749999
v -20.173286 -0.000000 2.000000
v 9.500000 -0.000000 2.000000
v 9.500000 0.250000 2.000000
v -19.673286 -0.000000 2.000000
v -20.173286 0.250000 2.000000
v 10.000000 -0.000000 2.000000
v -19.673286 5.500000 2.000000
v -20.173286 5.500000 2.000000
v 10.000000 0.250000 2.000000
v -19.673286 0.250000 2.000000
v -8.030187 -0.000000 2.000000
v -8.030187 0.250000 2.000000
v -4.223126 0.250000 2.000000
v -4.223125 -0.000000 2.000000
v -19.673286 4.750000 2.000000
v -20.173286 4.750000 2.000000
v -20.173286 1.000000 2.000000
v -19.673286 1.000000 2.000000
v -20.173286 0.250000 -2.000000
v 10.000000 -0.000000 -2.000000
v -20.173286 5.500000 -2.000000
v -20.173286 4.750000 -2.000000
v -20.173286 1.000000 -2.000000
v -20.173286 -0.000000 -2.000000
v 9.500000 -0.000000 -2.000000
v 9.500000 0.250000 -2.000000
v -19.673286 -0.000000 -2.000000
v -19.673286 5.500000 -2.000000
v 10.000000 0.250000 -2.000000
v -19.673286 0.250000 -2.000000
v -8.030187 -0.000000 -2.000000
v -8.030187 0.250000 -2.000000
v -4.223126 0.250000 -2.000000
v -4.223125 -0.000000 -2.000000
v -19.673286 4.750000 -2.000000
v -19.673286 1.000000 -2.000000
vn -0.0000 -0.0000 1.0000
vn -1.0000 -0.0000 -0.0000
vn -0.0000 -1.0000 -0.0000
vn 1.0000 -0.0000 -0.0000
vn -0.0000 -0.0000 -1.0000
vn -0.0000 1.0000 -0.0000
vt 0.625000 0.500000
vt 0.375000 0.500000
vt 0.625000 0.750000
vt 0.375000 0.750000
vt 0.375000 0.250000
vt 0.125000 0.500000
vt 0.625000 0.000000
vt 0.625000 1.000000
vt 0.375000 1.000000
vt 0.125000 0.750000
vt 0.375000 0.000000
vt 0.375000 0.489502
vt 0.364502 0.500000
vt 0.625000 0.760497
vt 0.635498 0.750000
vt 0.364502 0.750000
vt 0.375000 0.760498
vt 0.625000 0.489502
vt 0.635498 0.500000
vt 0.152799 0.500000
vt 0.375000 0.277799
vt 0.847201 0.750000
vt 0.625000 0.972201
vt 0.375000 0.972201
vt 0.152799 0.750000
vt 0.125000 0.729372
vt 0.375000 0.020628
vt 0.625000 0.729372
vt 0.625000 0.020628
vt 0.375000 0.729372
vt 0.364502 0.729372
vt 0.635498 0.729372
vt 0.152799 0.729372
vt 0.847201 0.729372
vt 0.875000 0.515575
vt 0.625000 0.234425
vt 0.375000 0.515575
vt 0.375000 0.234425
vt 0.125000 0.515575
vt 0.364502 0.515575
vt 0.635498 0.515575
vt 0.152799 0.515575
vt 0.625000 0.250000
vt 0.875000 0.500000
vt 0.847201 0.515575
vt 0.625000 0.234425
vt 0.875000 0.515575
vt 0.625000 0.020628
vt 0.875000 0.729372
vt 0.847201 0.729372
vt 0.625000 0.000000
vt 0.625000 1.000000
vt 0.875000 0.750000
vt 0.625000 0.277799
vt 0.847201 0.500000
vt 0.625000 0.515575
vt 0.625000 0.972201
vt 0.847201 0.750000
vt 0.847201 0.515575
vt 0.875000 0.500000
vt 0.635498 0.500000
vt 0.625000 0.500000
vt 0.847201 0.500000
vt 0.625000 0.515575
vt 0.635498 0.515575
vt 0.375000 0.887710
vt 0.237290 0.750000
vt 0.237290 0.500000
vt 0.375000 0.362290
vt 0.762710 0.750000
vt 0.625000 0.887709
vt 0.762710 0.729372
vt 0.237290 0.729372
vt 0.237290 0.515575
vt 0.762710 0.515575
vt 0.762710 0.500000
vt 0.625000 0.362290
vt 0.762710 0.500000
vt 0.762710 0.515575
vt 0.375000 0.860083
vt 0.264917 0.750000
vt 0.735083 0.729372
vt 0.735083 0.515575
vt 0.735083 0.500000
vt 0.625000 0.389917
vt 0.735083 0.500000
vt 0.735083 0.515575
vt 0.264917 0.500000
vt 0.375000 0.389917
vt 0.625000 0.860083
vt 0.735083 0.750000
vt 0.264917 0.729372
vt 0.264917 0.515575
vt 0.625000 1.000000
vt 0.625000 0.000000
vt 0.847201 0.729372
vt 0.625000 0.972201
vt 0.847201 0.750000
vt 0.847201 0.515575
vt 0.875000 0.515575
vt 0.625000 0.234425
vt 0.625000 0.020628
vt 0.847201 0.500000
vt 0.625000 0.515575
vt 0.635498 0.515575
vt 0.875000 0.500000
vt 0.635498 0.500000
vt 0.625000 0.500000
vt 0.762710 0.500000
vt 0.000000 0.000000
vt 0.762710 0.515575
vt 0.735083 0.500000
vt 0.000000 0.000000
vt 0.735083 0.515575
vt 0.847201 0.729372
vt 0.847201 0.515575
vt 0.625000 0.020628
vt 0.847201 0.500000
vt 0.625000 0.500000
vt 0.625000 0.000000
vt 0.625000 1.000000
vt 0.847201 0.750000
vt 0.625000 0.972201
vt 0.875000 0.515575
vt 0.625000 0.234425
vt 0.625000 0.515575
vt 0.635498 0.515575
vt 0.875000 0.500000
vt 0.635498 0.500000
vt 0.762710 0.500000
vt 0.000000 0.000000
vt 0.762710 0.515575
vt 0.735083 0.500000
vt 0.000000 0.000000
vt 0.735083 0.515575
vt 0.125000 0.645090
vt 0.375000 0.104910
vt 0.364502 0.645090
vt 0.635498 0.645090
vt 0.152799 0.645090
vt 0.625000 0.104910
vt 0.375000 0.645090
vt 0.847201 0.645090
vt 0.875000 0.645090
vt 0.625000 0.104910
vt 0.625000 0.645090
vt 0.847201 0.645090
vt 0.237290 0.645090
vt 0.762710 0.645090
vt 0.735083 0.645090
vt 0.264917 0.645090
vt 0.847201 0.645090
vt 0.000000 0.000000
vt 0.625000 0.104910
vt 0.000000 0.000000
vt 0.625000 0.104910
vt 0.000000 0.000000
vt 0.847201 0.645090
vt 0.000000 0.000000
vt 0.625000 0.169668
vt 0.375000 0.580332
vt 0.625000 0.169668
vt 0.875000 0.580332
vt 0.625000 0.169668
vt 0.000000 0.000000
vt 0.625000 0.169668
vt 0.000000 0.000000
vt 0.125000 0.580332
vt 0.375000 0.169668
vt 0.364502 0.580332
vt 0.635498 0.580332
vt 0.152799 0.580332
vt 0.847201 0.580332
vt 0.625000 0.580332
vt 0.847201 0.580332
vt 0.237290 0.580332
vt 0.762710 0.580332
vt 0.735083 0.580332
vt 0.264917 0.580332
vt 0.847201 0.580332
vt 0.000000 0.000000
vt 0.847201 0.580332
vt 0.000000 0.000000
s 0
usemtl Material
f 14/24/1 13/23/1 6/8/1 7/9/1
f 25/38/2 23/36/2 29/43/2 5/5/2
f 19/31/3 18/30/3 4/4/3 10/16/3
f 18/30/4 16/28/4 3/3/4 4/4/4
f 8/12/5 11/18/5 1/1/5 2/2/5
f 61/89/5 59/85/5 11/18/5 8/12/5
f 63/92/3 19/31/3 10/16/3 55/81/3
f 4/4/1 3/3/1 9/14/1 10/17/1
f 16/28/6 20/32/6 9/15/6 3/3/6
f 15/26/3 21/33/3 14/25/3 7/10/3
f 5/5/5 29/43/5 35/54/5 12/21/5
f 45/66/1 47/71/1 13/23/1 14/24/1
f 48/72/6 22/34/6 13/22/6 47/70/6
f 108/149/6 106/147/6 22/34/6 48/72/6
f 97/136/3 100/140/3 21/33/3 15/26/3
f 105/146/6 99/139/6 20/32/6 16/28/6
f 110/151/3 98/138/3 19/31/3 63/92/3
f 102/142/4 105/146/4 16/28/4 18/30/4
f 98/138/3 102/142/3 18/30/3 19/31/3
f 7/11/2 6/7/2 17/29/2 15/27/2
f 70/102/2 65/95/2 34/51/2 32/48/2
f 8/13/3 2/2/3 24/37/3 26/40/3
f 2/2/4 1/1/4 36/56/4 24/37/4
f 61/88/3 8/13/3 26/40/3 64/93/3
f 5/6/3 12/20/3 28/42/3 25/39/3
f 120/169/2 115/160/2 23/36/2 25/38/2
f 67/98/4 66/96/4 33/50/4 37/58/4
f 71/103/5 74/106/5 39/60/5 42/63/5
f 80/114/1 73/105/1 44/65/1 57/83/1
f 112/154/2 70/102/2 32/48/2 104/145/2
f 131/180/4 68/99/4 30/45/4 124/173/4
f 65/94/1 67/97/1 37/57/1 34/52/1
f 103/143/6 104/144/6 32/49/6 33/50/6
f 33/50/6 32/49/6 34/53/6 37/58/6
f 42/63/6 39/60/6 31/47/6 30/45/6
f 41/62/6 40/61/6 44/65/6 43/64/6
f 52/76/6 42/63/6 30/45/6 51/75/6
f 76/108/5 75/107/5 40/61/5 41/62/5
f 73/105/1 72/104/1 43/64/1 44/65/1
f 72/104/4 76/108/4 41/62/4 43/64/4
f 77/109/5 71/103/5 42/63/5 52/76/5
f 74/106/2 69/100/2 31/47/2 39/60/2
f 79/112/5 77/109/5 52/76/5 58/84/5
f 58/84/6 52/76/6 51/75/6 57/83/6
f 68/99/1 78/111/1 51/75/1 30/45/1
f 12/20/3 46/68/3 50/74/3 28/42/3
f 100/140/3 107/148/3 49/73/3 21/33/3
f 109/150/6 108/149/6 48/72/6 56/82/6
f 56/82/6 48/72/6 47/70/6 62/91/6
f 55/80/1 62/90/1 47/71/1 45/66/1
f 21/33/3 49/73/3 45/67/3 14/25/3
f 12/21/5 35/54/5 53/77/5 46/69/5
f 10/17/1 9/14/1 62/90/1 55/80/1
f 20/32/6 56/82/6 62/91/6 9/15/6
f 99/139/6 109/150/6 56/82/6 20/32/6
f 40/61/6 58/84/6 57/83/6 44/65/6
f 75/107/5 79/112/5 58/84/5 40/61/5
f 78/111/1 80/114/1 57/83/1 51/75/1
f 46/68/3 61/88/3 64/93/3 50/74/3
f 107/148/3 110/151/3 63/92/3 49/73/3
f 49/73/3 63/92/3 55/81/3 45/67/3
f 46/69/5 53/77/5 59/85/5 61/89/5
f 92/129/5 95/133/5 79/112/5 75/107/5
f 82/116/1 94/132/1 78/111/1 68/99/1
f 91/128/2 88/124/2 69/100/2 74/106/2
f 93/130/5 84/118/5 71/103/5 77/109/5
f 89/126/4 85/119/4 76/108/4 72/104/4
f 90/127/1 89/126/1 72/104/1 73/105/1
f 85/119/5 92/129/5 75/107/5 76/108/5
f 86/121/1 87/123/1 67/97/1 65/94/1
f 132/182/4 82/116/4 68/99/4 131/180/4
f 113/156/2 83/117/2 70/102/2 112/154/2
f 96/135/1 90/127/1 73/105/1 80/114/1
f 84/118/5 91/128/5 74/106/5 71/103/5
f 87/122/4 81/115/4 66/96/4 67/98/4
f 83/117/2 86/120/2 65/95/2 70/102/2
f 17/29/2 6/7/2 86/120/2 83/117/2
f 13/22/4 22/34/4 81/115/4 87/122/4
f 35/55/5 29/44/5 91/128/5 84/118/5
f 60/87/1 27/41/1 90/127/1 96/135/1
f 101/141/2 17/29/2 83/117/2 113/156/2
f 126/175/4 38/59/4 82/116/4 132/182/4
f 6/8/1 13/23/1 87/123/1 86/121/1
f 1/1/5 11/19/5 92/129/5 85/119/5
f 27/41/1 36/56/1 89/126/1 90/127/1
f 36/56/4 1/1/4 85/119/4 89/126/4
f 53/78/5 35/55/5 84/118/5 93/130/5
f 29/44/2 23/35/2 88/124/2 91/128/2
f 59/86/5 53/78/5 93/130/5 95/133/5
f 38/59/1 54/79/1 94/132/1 82/116/1
f 11/19/5 59/86/5 95/133/5 92/129/5
f 54/79/1 60/87/1 96/135/1 94/132/1
f 77/109/2 93/130/2 94/132/2 78/111/2
f 93/130/3 95/133/3 96/135/3 94/132/3
f 79/112/4 80/114/4 96/135/4 95/133/4
f 80/114/6 79/112/6 77/109/6 78/111/6
f 93/131/1 95/134/1 79/113/1 77/110/1
f 22/34/4 106/147/4 114/158/4 81/115/4
f 115/160/2 101/141/2 113/156/2 119/166/2
f 119/167/4 118/164/4 112/154/4 113/157/4
f 81/115/4 114/158/4 111/152/4 66/96/4
f 127/176/3 130/179/3 110/151/3 107/148/3
f 122/171/6 129/178/6 109/150/6 99/139/6
f 129/178/6 128/177/6 108/149/6 109/150/6
f 123/172/3 127/176/3 107/148/3 100/140/3
f 124/173/6 117/163/6 104/144/6 103/143/6
f 66/96/4 111/152/4 103/143/4 33/50/4
f 118/164/2 112/154/2 104/145/2 117/162/2
f 15/27/2 17/29/2 101/141/2 97/137/2
f 121/170/3 116/161/3 102/142/3 98/138/3
f 116/161/4 125/174/4 105/146/4 102/142/4
f 130/179/3 121/170/3 98/138/3 110/151/3
f 125/174/6 122/171/6 99/139/6 105/146/6
f 120/168/3 123/172/3 100/140/3 97/136/3
f 128/177/6 126/175/6 106/147/6 108/149/6
f 54/79/6 38/59/6 126/175/6 128/177/6
f 25/39/3 28/42/3 123/172/3 120/168/3
f 36/56/6 27/41/6 122/171/6 125/174/6
f 64/93/3 26/40/3 121/170/3 130/179/3
f 24/37/4 36/56/4 125/174/4 116/161/4
f 26/40/3 24/37/3 116/161/3 121/170/3
f 69/101/2 118/164/2 117/162/2 31/46/2
f 30/45/6 31/47/6 117/163/6 124/173/6
f 28/42/3 50/74/3 127/176/3 123/172/3
f 60/87/6 54/79/6 128/177/6 129/178/6
f 27/41/6 60/87/6 129/178/6 122/171/6
f 50/74/3 64/93/3 130/179/3 127/176/3
f 88/125/2 119/166/2 118/164/2 69/101/2
f 23/36/2 115/160/2 119/166/2 88/125/2
f 106/147/4 126/175/4 132/182/4 114/158/4
f 111/152/4 131/180/4 124/173/4 103/143/4
f 97/137/2 101/141/2 115/160/2 120/169/2
f 112/154/5 111/152/5 114/158/5 113/156/5
f 132/183/6 119/167/6 113/157/6 114/159/6
f 119/167/1 132/183/1 131/181/1 118/165/1
f 118/165/3 131/181/3 111/153/3 112/155/3
